<svg width="1536" height="329" viewBox="0 0 1536 329" fill="none" xmlns="http://www.w3.org/2000/svg">
<g clip-path="url(#clip0_447_697)">
<path d="M1384.22 316V268.32H1404.38C1407.67 268.32 1410.49 268.875 1412.83 269.984C1415.18 271.093 1416.97 272.693 1418.21 274.784C1419.45 276.832 1420.06 279.328 1420.06 282.272C1420.06 284.363 1419.49 286.368 1418.34 288.288C1417.18 290.165 1415.29 291.744 1412.64 293.024V288.16C1415.16 289.141 1417.1 290.315 1418.46 291.68C1419.83 293.045 1420.77 294.539 1421.28 296.16C1421.79 297.739 1422.05 299.403 1422.05 301.152C1422.05 305.845 1420.49 309.493 1417.38 312.096C1414.26 314.699 1409.93 316 1404.38 316H1384.22ZM1394.14 307.36H1405.54C1407.54 307.36 1409.14 306.784 1410.34 305.632C1411.53 304.48 1412.13 302.987 1412.13 301.152C1412.13 299.275 1411.53 297.76 1410.34 296.608C1409.14 295.456 1407.54 294.88 1405.54 294.88H1394.14V307.36ZM1394.14 286.24H1405.09C1406.62 286.24 1407.84 285.813 1408.74 284.96C1409.67 284.064 1410.14 282.891 1410.14 281.44C1410.14 279.989 1409.67 278.837 1408.74 277.984C1407.84 277.088 1406.62 276.64 1405.09 276.64H1394.14V286.24ZM1432.44 316V306.4H1442.04V316H1432.44ZM1477.19 316.768C1473.78 316.768 1470.6 316.149 1467.66 314.912C1464.76 313.675 1462.22 311.947 1460.04 309.728C1457.86 307.509 1456.16 304.907 1454.92 301.92C1453.73 298.933 1453.13 295.669 1453.13 292.128C1453.13 288.587 1453.73 285.323 1454.92 282.336C1456.12 279.307 1457.8 276.704 1459.98 274.528C1462.15 272.309 1464.69 270.603 1467.59 269.408C1470.54 268.171 1473.74 267.552 1477.19 267.552C1480.65 267.552 1483.74 268.128 1486.47 269.28C1489.25 270.432 1491.59 271.968 1493.51 273.888C1495.43 275.808 1496.8 277.941 1497.61 280.288L1488.84 284.512C1488.03 282.208 1486.6 280.309 1484.55 278.816C1482.55 277.28 1480.09 276.512 1477.19 276.512C1474.38 276.512 1471.9 277.173 1469.77 278.496C1467.64 279.819 1465.97 281.653 1464.78 284C1463.62 286.304 1463.05 289.013 1463.05 292.128C1463.05 295.243 1463.62 297.973 1464.78 300.32C1465.97 302.667 1467.64 304.501 1469.77 305.824C1471.9 307.147 1474.38 307.808 1477.19 307.808C1480.09 307.808 1482.55 307.061 1484.55 305.568C1486.6 304.032 1488.03 302.112 1488.84 299.808L1497.61 304.032C1496.8 306.379 1495.43 308.512 1493.51 310.432C1491.59 312.352 1489.25 313.888 1486.47 315.04C1483.74 316.192 1480.65 316.768 1477.19 316.768ZM1508.01 316V306.4H1517.61V316H1508.01Z" fill="#E8E8E8"/>
<path d="M88.5 307.6C76.7 307.6 65.3 305.4 54.3 301C43.3 296.4 33.9 290 26.1 281.8C18.3 273.4 13.2 263.4 10.8 251.8L51.9 238C54.9 247.6 59.7 254.6 66.3 259C72.9 263.4 80.3 265.6 88.5 265.6C95.5 265.6 101.6 264.2 106.8 261.4C112 258.4 116 254.3 118.8 249.1C121.8 243.7 123.3 237.5 123.3 230.5C123.3 223.5 121.8 217.4 118.8 212.2C116 207 112 203 106.8 200.2C101.6 197.2 95.5 195.7 88.5 195.7C81.3 195.7 74.9 197.3 69.3 200.5C63.7 203.5 59.6 208.2 57 214.6L18.9 205.6L36.9 80.5H161.7V119.5H55.8L73.2 98.5L60.9 191.5L48.3 180.4C53.3 172.2 59.6 166.2 67.2 162.4C75 158.6 85 156.7 97.2 156.7C112.2 156.7 125.1 159.9 135.9 166.3C146.7 172.5 155 181.1 160.8 192.1C166.8 203.1 169.8 215.9 169.8 230.5C169.8 245.1 166.2 258.3 159 270.1C152 281.7 142.4 290.9 130.2 297.7C118 304.3 104.1 307.6 88.5 307.6ZM196.877 304V268L256.877 206.2C268.677 194 277.577 184.4 283.577 177.4C289.777 170.2 293.977 164.2 296.177 159.4C298.577 154.6 299.777 149.9 299.777 145.3C299.777 137.1 297.077 130.7 291.677 126.1C286.477 121.3 279.877 118.9 271.877 118.9C263.677 118.9 256.377 121.3 249.977 126.1C243.577 130.7 238.877 137.8 235.877 147.4L195.377 134.2C197.777 122.6 202.777 112.5 210.377 103.9C217.977 95.3 227.177 88.7 237.977 84.1C248.777 79.3 260.077 76.9 271.877 76.9C286.677 76.9 299.677 79.5 310.877 84.7C322.077 89.9 330.777 97.2 336.977 106.6C343.177 116 346.277 127 346.277 139.6C346.277 147.6 344.877 155.5 342.077 163.3C339.277 170.9 334.977 178.7 329.177 186.7C323.577 194.5 316.277 203 307.277 212.2L255.977 265H348.377V304H196.877Z" fill="#EDEDED"/>
<path d="M1176 307.6C1158.2 307.6 1142.5 302.8 1128.9 293.2C1115.5 283.6 1105 270.1 1097.4 252.7C1089.8 235.3 1086 215.1 1086 192.1C1086 168.9 1089.7 148.7 1097.1 131.5C1104.7 114.3 1115.2 100.9 1128.6 91.3C1142.2 81.7 1157.9 76.9 1175.7 76.9C1193.9 76.9 1209.7 81.7 1223.1 91.3C1236.7 100.9 1247.2 114.4 1254.6 131.8C1262.2 149 1266 169.1 1266 192.1C1266 215.1 1262.2 235.3 1254.6 252.7C1247.2 269.9 1236.7 283.4 1223.1 293.2C1209.7 302.8 1194 307.6 1176 307.6ZM1176.3 265.6C1185.5 265.6 1193.3 262.7 1199.7 256.9C1206.1 251.1 1211 242.7 1214.4 231.7C1217.8 220.7 1219.5 207.5 1219.5 192.1C1219.5 176.7 1217.8 163.6 1214.4 152.8C1211 141.8 1206 133.4 1199.4 127.6C1193 121.8 1185.1 118.9 1175.7 118.9C1166.5 118.9 1158.7 121.8 1152.3 127.6C1145.9 133.4 1141 141.8 1137.6 152.8C1134.2 163.6 1132.5 176.7 1132.5 192.1C1132.5 207.3 1134.2 220.4 1137.6 231.4C1141 242.4 1145.9 250.9 1152.3 256.9C1158.9 262.7 1166.9 265.6 1176.3 265.6Z" fill="#EDEDED"/>
<path d="M1367 307.6C1349.2 307.6 1333.5 302.8 1319.9 293.2C1306.5 283.6 1296 270.1 1288.4 252.7C1280.8 235.3 1277 215.1 1277 192.1C1277 168.9 1280.7 148.7 1288.1 131.5C1295.7 114.3 1306.2 100.9 1319.6 91.3C1333.2 81.7 1348.9 76.9 1366.7 76.9C1384.9 76.9 1400.7 81.7 1414.1 91.3C1427.7 100.9 1438.2 114.4 1445.6 131.8C1453.2 149 1457 169.1 1457 192.1C1457 215.1 1453.2 235.3 1445.6 252.7C1438.2 269.9 1427.7 283.4 1414.1 293.2C1400.7 302.8 1385 307.6 1367 307.6ZM1367.3 265.6C1376.5 265.6 1384.3 262.7 1390.7 256.9C1397.1 251.1 1402 242.7 1405.4 231.7C1408.8 220.7 1410.5 207.5 1410.5 192.1C1410.5 176.7 1408.8 163.6 1405.4 152.8C1402 141.8 1397 133.4 1390.4 127.6C1384 121.8 1376.1 118.9 1366.7 118.9C1357.5 118.9 1349.7 121.8 1343.3 127.6C1336.9 133.4 1332 141.8 1328.6 152.8C1325.2 163.6 1323.5 176.7 1323.5 192.1C1323.5 207.3 1325.2 220.4 1328.6 231.4C1332 242.4 1336.9 250.9 1343.3 256.9C1349.9 262.7 1357.9 265.6 1367.3 265.6Z" fill="#EDEDED"/>
<mask id="mask0_447_697" style="mask-type:alpha" maskUnits="userSpaceOnUse" x="1087" y="77" width="371" height="231">
<path d="M1368 307.7C1350.2 307.7 1334.5 302.9 1320.9 293.3C1307.5 283.7 1297 270.2 1289.4 252.8C1281.8 235.4 1278 215.2 1278 192.2C1278 169 1281.7 148.8 1289.1 131.6C1296.7 114.4 1307.2 101 1320.6 91.4C1334.2 81.8 1349.9 77 1367.7 77C1385.9 77 1401.7 81.8 1415.1 91.4C1428.7 101 1439.2 114.5 1446.6 131.9C1454.2 149.1 1458 169.2 1458 192.2C1458 215.2 1454.2 235.4 1446.6 252.8C1439.2 270 1428.7 283.5 1415.1 293.3C1401.7 302.9 1386 307.7 1368 307.7ZM1368.3 265.7C1377.5 265.7 1385.3 262.8 1391.7 257C1398.1 251.2 1403 242.8 1406.4 231.8C1409.8 220.8 1411.5 207.6 1411.5 192.2C1411.5 176.8 1409.8 163.7 1406.4 152.9C1403 141.9 1398 133.5 1391.4 127.7C1385 121.9 1377.1 119 1367.7 119C1358.5 119 1350.7 121.9 1344.3 127.7C1337.9 133.5 1333 141.9 1329.6 152.9C1326.2 163.7 1324.5 176.8 1324.5 192.2C1324.5 207.4 1326.2 220.5 1329.6 231.5C1333 242.5 1337.9 251 1344.3 257C1350.9 262.8 1358.9 265.7 1368.3 265.7Z" fill="#EDEDED"/>
<path d="M1177 307.7C1159.2 307.7 1143.5 302.9 1129.9 293.3C1116.5 283.7 1106 270.2 1098.4 252.8C1090.8 235.4 1087 215.2 1087 192.2C1087 169 1090.7 148.8 1098.1 131.6C1105.7 114.4 1116.2 101 1129.6 91.4C1143.2 81.8 1158.9 77 1176.7 77C1194.9 77 1210.7 81.8 1224.1 91.4C1237.7 101 1248.2 114.5 1255.6 131.9C1263.2 149.1 1267 169.2 1267 192.2C1267 215.2 1263.2 235.4 1255.6 252.8C1248.2 270 1237.7 283.5 1224.1 293.3C1210.7 302.9 1195 307.7 1177 307.7ZM1177.3 265.7C1186.5 265.7 1194.3 262.8 1200.7 257C1207.1 251.2 1212 242.8 1215.4 231.8C1218.8 220.8 1220.5 207.6 1220.5 192.2C1220.5 176.8 1218.8 163.7 1215.4 152.9C1212 141.9 1207 133.5 1200.4 127.7C1194 121.9 1186.1 119 1176.7 119C1167.5 119 1159.7 121.9 1153.3 127.7C1146.9 133.5 1142 141.9 1138.6 152.9C1135.2 163.7 1133.5 176.8 1133.5 192.2C1133.5 207.4 1135.2 220.5 1138.6 231.5C1142 242.5 1146.9 251 1153.3 257C1159.9 262.8 1167.9 265.7 1177.3 265.7Z" fill="#EDEDED"/>
</mask>
<g mask="url(#mask0_447_697)">
<path d="M1384.23 316V268.32H1404.39C1407.67 268.32 1410.49 268.875 1412.83 269.984C1415.18 271.093 1416.97 272.693 1418.21 274.784C1419.45 276.832 1420.07 279.328 1420.07 282.272C1420.07 284.363 1419.49 286.368 1418.34 288.288C1417.19 290.165 1415.29 291.744 1412.64 293.024V288.16C1415.16 289.141 1417.1 290.315 1418.47 291.68C1419.83 293.045 1420.77 294.539 1421.28 296.16C1421.79 297.739 1422.05 299.403 1422.05 301.152C1422.05 305.845 1420.49 309.493 1417.38 312.096C1414.26 314.699 1409.93 316 1404.39 316H1384.23ZM1394.15 307.36H1405.54C1407.54 307.36 1409.14 306.784 1410.34 305.632C1411.53 304.48 1412.13 302.987 1412.13 301.152C1412.13 299.275 1411.53 297.76 1410.34 296.608C1409.14 295.456 1407.54 294.88 1405.54 294.88H1394.15V307.36ZM1394.15 286.24H1405.09C1406.63 286.24 1407.84 285.813 1408.74 284.96C1409.68 284.064 1410.15 282.891 1410.15 281.44C1410.15 279.989 1409.68 278.837 1408.74 277.984C1407.84 277.088 1406.63 276.64 1405.09 276.64H1394.15V286.24Z" fill="black"/>
</g>
</g>
<defs>
<clipPath id="clip0_447_697">
<rect width="1536" height="329" fill="white"/>
</clipPath>
</defs>
</svg>
