<svg width="57" height="57" viewBox="0 0 57 57" fill="none" xmlns="http://www.w3.org/2000/svg">
<path d="M28.5 4.75C15.39 4.75 4.75 15.39 4.75 28.5C4.75 41.61 15.39 52.25 28.5 52.25C41.61 52.25 52.25 41.61 52.25 28.5C52.25 15.39 41.61 4.75 28.5 4.75ZM38.0713 29.7587L30.9462 36.8838C30.59 37.24 30.1388 37.4062 29.6875 37.4062C29.2362 37.4062 28.785 37.24 28.4288 36.8838C27.74 36.195 27.74 35.055 28.4288 34.3663L32.5137 30.2812H20.1875C19.2137 30.2812 18.4062 29.4737 18.4062 28.5C18.4062 27.5263 19.2137 26.7188 20.1875 26.7188H32.5137L28.4288 22.6337C27.74 21.945 27.74 20.805 28.4288 20.1163C29.1175 19.4275 30.2575 19.4275 30.9462 20.1163L38.0713 27.2413C38.76 27.93 38.76 29.07 38.0713 29.7587Z" fill="#010101"/>
</svg>
