<svg width="62" height="62" viewBox="0 0 62 62" fill="none" xmlns="http://www.w3.org/2000/svg">
<path d="M31.001 43.7679C32.008 43.7681 32.824 44.5842 32.8242 45.5912V49.2396C32.8242 50.2468 32.0081 51.0637 31.001 51.0638C29.9937 51.0638 29.1768 50.2469 29.1768 49.2396V45.5912C29.177 44.5841 29.9938 43.7679 31.001 43.7679ZM18.4541 41.4095C19.1664 40.6972 20.3219 40.6972 21.0342 41.4095C21.7461 42.1217 21.746 43.2764 21.0342 43.9886L18.4541 46.5687C17.7419 47.2807 16.5872 47.2807 15.875 46.5687C15.1627 45.8564 15.1627 44.7009 15.875 43.9886L18.4541 41.4095ZM41.4102 41.4095C42.1224 40.6973 43.2769 40.6974 43.9893 41.4095L46.5693 43.9886C47.2816 44.7009 47.2816 45.8564 46.5693 46.5687C45.857 47.281 44.7016 47.281 43.9893 46.5687L41.4102 43.9886C40.698 43.2763 40.6979 42.1218 41.4102 41.4095ZM31.001 20.056C37.0449 20.0562 41.9443 24.9564 41.9443 31.0004C41.9441 37.0441 37.0447 41.9435 31.001 41.9437C24.957 41.9437 20.0568 37.0442 20.0566 31.0004C20.0566 24.9563 24.9569 20.056 31.001 20.056ZM16.4092 29.1761C17.4164 29.1762 18.2334 29.9931 18.2334 31.0004C18.2332 32.0075 17.4163 32.8235 16.4092 32.8236H12.7607C11.7537 32.8234 10.9377 32.0074 10.9375 31.0004C10.9375 29.9931 11.7536 29.1763 12.7607 29.1761H16.4092ZM49.2402 29.1761C50.2475 29.1762 51.0645 29.9931 51.0645 31.0004C51.0643 32.0075 50.2474 32.8236 49.2402 32.8236H45.5918C44.5848 32.8234 43.7687 32.0074 43.7686 31.0004C43.7686 29.9932 44.5847 29.1764 45.5918 29.1761H49.2402ZM15.875 15.8744C16.5873 15.1621 17.7418 15.1621 18.4541 15.8744L21.0342 18.4535C21.7463 19.1658 21.7464 20.3213 21.0342 21.0336C20.3219 21.7458 19.1664 21.7457 18.4541 21.0336L15.875 18.4535C15.1627 17.7412 15.1627 16.5867 15.875 15.8744ZM43.9893 15.8744C44.7016 15.1621 45.857 15.1621 46.5693 15.8744C47.2813 16.5866 47.2813 17.7413 46.5693 18.4535L43.9893 21.0336C43.277 21.7454 42.1223 21.7455 41.4102 21.0336C40.6979 20.3213 40.6979 19.1658 41.4102 18.4535L43.9893 15.8744ZM31.001 10.9369C32.008 10.9371 32.824 11.7531 32.8242 12.7601V16.4086C32.8241 17.4157 32.0081 18.2326 31.001 18.2328C29.9937 18.2328 29.1769 17.4158 29.1768 16.4086V12.7601C29.177 11.753 29.9938 10.9369 31.001 10.9369Z" fill="white"/>
</svg>
