<svg width="1044" height="407" viewBox="0 0 1044 407" fill="none" xmlns="http://www.w3.org/2000/svg">
<g clip-path="url(#clip0_523_701)">
<path fill-rule="evenodd" clip-rule="evenodd" d="M511.281 407H509.782C509.782 394.777 505.211 384.091 496.076 374.956C486.941 365.821 476.262 361.249 464.031 361.249V359.751C476.262 359.751 486.941 355.179 496.076 346.022C505.211 336.864 509.782 326.185 509.782 314H511.281C511.281 326.223 515.852 336.909 524.987 346.044C534.122 355.179 544.801 359.751 557.031 359.751V361.249C544.808 361.249 534.122 365.821 524.987 374.956C515.852 384.091 511.281 394.77 511.281 407Z" fill="#EDEDED"/>
</g>
<path d="M1022.06 0C948.459 211.341 747.458 363 511.032 363C274.607 363 73.6053 211.341 0 0H3.17773C76.6561 209.654 276.286 360 511.032 360C745.779 360 945.408 209.654 1018.89 0H1022.06Z" fill="#EDEDED"/>
<defs>
<clipPath id="clip0_523_701">
<rect width="93" height="93" fill="white" transform="translate(464.031 314)"/>
</clipPath>
</defs>
</svg>
