<svg width="1254" height="1218" viewBox="0 0 1254 1218" fill="none" xmlns="http://www.w3.org/2000/svg">
<g clip-path="url(#clip0_442_691)">
<path fill-rule="evenodd" clip-rule="evenodd" d="M636.249 1172H634.751C634.751 1159.78 630.179 1149.09 621.044 1139.96C611.909 1130.82 601.23 1126.25 589 1126.25V1124.75C601.23 1124.75 611.909 1120.18 621.044 1111.02C630.179 1101.86 634.751 1091.19 634.751 1079H636.249C636.249 1091.22 640.821 1101.91 649.956 1111.04C659.091 1120.18 669.77 1124.75 682 1124.75V1126.25C669.777 1126.25 659.091 1130.82 649.956 1139.96C640.821 1149.09 636.249 1159.77 636.249 1172Z" fill="#EDEDED"/>
</g>
<circle cx="636" cy="587" r="539.5" stroke="#EDEDED" stroke-width="3"/>
<defs>
<clipPath id="clip0_442_691">
<rect width="93" height="93" fill="white" transform="translate(589 1079)"/>
</clipPath>
</defs>
</svg>
